<?xml version="1.0" encoding="UTF-8" standalone="no"?>
<svg
   xmlns:dc="http://purl.org/dc/elements/1.1/"
   xmlns:cc="http://creativecommons.org/ns#"
   xmlns:rdf="http://www.w3.org/1999/02/22-rdf-syntax-ns#"
   xmlns:svg="http://www.w3.org/2000/svg"
   xmlns="http://www.w3.org/2000/svg"
   viewBox="0 0 500 386.99999"
   height="387"
   width="500"
   xml:space="preserve"
   id="svg833"
   version="1.1"><metadata
     id="metadata839"><rdf:RDF><cc:Work
         rdf:about=""><dc:format>image/svg+xml</dc:format><dc:type
           rdf:resource="http://purl.org/dc/dcmitype/StillImage" /><dc:title></dc:title></cc:Work></rdf:RDF></metadata><defs
     id="defs837"><clipPath
       id="clipPath849"
       clipPathUnits="userSpaceOnUse"><path
         id="path847"
         d="m 247.471,134.097 h 100 V 56.693 h -100 z" /></clipPath></defs><g
     transform="matrix(1.3333333,0,0,-1.3333333,-329.96133,178.796)"
     id="g841"><g
       transform="matrix(3.7500001,0,0,3.7498063,-680.54527,-368.74077)"
       id="g843"><g
         clip-path="url(#clipPath849)"
         id="g845"><path
           id="path851"
           style="fill:#009cac;fill-opacity:1;fill-rule:nonzero;stroke:none"
           d="m 247.471,61.854 h 100 v 72.243 h -100 z" /><path
           id="path853"
           style="fill:#ed1c24;fill-opacity:1;fill-rule:nonzero;stroke:none"
           d="m 247.471,56.693 h 100 v 5.161 h -100 z" /></g></g><g
       transform="matrix(3.7500001,0,0,3.7498063,497.21726,-59.021774)"
       id="g855"><path
         id="path857"
         style="fill:#ffffff;fill-opacity:1;fill-rule:nonzero;stroke:none"
         d="M 0,0 H 0.115 L 0.639,-6.331 H -4.42 C -2.77,-3.669 -1.231,-1.346 0,0 m -18.019,0 h 0.111 l 0.524,-6.331 h -5.057 c 1.648,2.662 3.183,4.985 4.422,6.331 m 36.53,2.362 h 5.955 l 1.086,2.697 H 16.15 c -2.213,0 -3.185,-0.561 -4.008,-2.883 L 7.196,-11.426 H 7.085 L 5.36,5.059 H 1.725 c -0.601,0 -1.01,-0.073 -1.461,-0.449 -2.51,-2.099 -7.946,-9.892 -11.09,-16.036 h -0.111 l -1.725,16.485 h -3.634 c -0.598,0 -1.011,-0.073 -1.462,-0.449 -2.511,-2.099 -7.942,-9.892 -11.089,-16.036 h -0.113 l 0.413,16.485 h -4.496 c -0.9,0 -1.126,-0.149 -1.572,-0.672 -1.688,-1.988 -4.647,-6.669 -6.596,-10.641 h -0.074 l 0.3,11.313 h -3.3 c -0.447,0 -1.046,-0.299 -1.571,-0.672 -3.672,-2.622 -8.167,-9.443 -11.914,-17.388 h 3.895 c 2.327,4.837 5.097,9.594 7.196,11.956 h 0.109 l -0.222,-9.707 c -0.038,-1.984 1.011,-2.249 1.722,-2.249 h 3.746 c 2.399,4.911 5.135,9.555 6.745,11.73 h 0.075 l -0.152,-9.857 c 0,-1.084 0.863,-1.873 2.212,-1.873 h 6.22 c 0.786,1.427 1.573,2.925 2.399,4.349 h 6.628 l 0.151,-1.913 c 0.152,-1.61 0.934,-2.436 2.771,-2.436 h 6.071 c 0.788,1.427 1.576,2.925 2.398,4.349 h 6.632 l 0.147,-1.913 c 0.151,-1.61 0.94,-2.436 2.772,-2.436 h 8.96 l 3.035,8.095 h 4.271 c 0.971,0 1.645,0.373 1.944,1.197 l 0.488,1.274 h -5.769" /></g><g
       transform="matrix(3.7500001,0,0,3.7498063,563.25851,33.159714)"
       id="g859"><path
         id="path861"
         style="fill:#ed1c24;fill-opacity:1;fill-rule:nonzero;stroke:none"
         d="M 0,0 C 0,0.637 0.52,1.156 1.154,1.156 1.795,1.156 2.311,0.637 2.311,0 2.311,-0.637 1.795,-1.154 1.154,-1.154 0.52,-1.154 0,-0.637 0,0" /></g><g
       transform="matrix(3.7500001,0,0,3.7498063,582.65726,45.800311)"
       id="g863"><path
         id="path865"
         style="fill:#ffffff;fill-opacity:1;fill-rule:nonzero;stroke:none"
         d="m 0,0 c -5.576,9.8 -20.972,9.203 -21.129,9.196 -0.015,0.002 -0.421,0.018 -1.155,0.007 -8.716,0 -16.519,-1.811 -23.392,-4.63 -0.01,-0.004 -0.018,-0.005 -0.029,-0.009 -0.796,-0.336 -1.331,-0.244 -1.559,-0.173 -0.487,0.184 -0.812,0.397 -0.812,0.397 l -0.003,-0.004 c -7.107,4.202 -13.403,3.947 -13.403,3.947 0,0 -2.571,-0.05 -3.351,-0.233 -0.753,-0.179 -0.781,-0.398 -0.017,-0.364 1.403,0.058 3.696,0.021 8.736,-1.851 L -53.9,5.271 c 1.181,-0.652 2.021,-1.31 2.582,-1.817 0.181,-0.183 0.299,-0.359 0.377,-0.524 0.053,-0.155 0.174,-0.69 -0.59,-1.103 -0.018,-0.009 -0.029,-0.019 -0.046,-0.028 -5.775,-3.064 -10.764,-6.775 -14.946,-10.52 -5.121,-4.393 -10.191,-9.954 -14.702,-17.034 -0.88,-1.354 -1.329,-2.15 -1.329,-2.15 0,0 -2.096,-3.519 -1.258,-3.297 0.845,0.225 2.373,2.799 2.373,2.799 6.626,9.168 13.815,15.871 20.821,20.774 6.974,4.729 13.897,7.981 19.067,9.733 11.725,3.969 20.336,3.608 20.422,3.604 0.147,0.004 12.963,0.473 19.734,-5.92 C -1.38,-0.229 0.459,-2.055 0.793,-2.561 0.828,-2.612 0.94,-2.778 1.089,-2.683 1.408,-2.485 0.06,-0.1 0,0" /></g></g></svg>
